HIERARCHY
ROOT Hips
{
	OFFSET 0.000000 97.167313 0.000000
	CHANNELS 6 Xposition Yposition Zposition Xrotation Yrotation Zrotation
	JOINT Spine
	{
		OFFSET 0.000000 13.784798 0.064400
		CHANNELS 3 Xrotation Yrotation Zrotation
		JOINT Spine1
		{
			OFFSET 0.000000 12.037903 0.404700
			CHANNELS 3 Xrotation Yrotation Zrotation
			JOINT Spine2
			{
				OFFSET 0.000000 17.795601 0.420200
				CHANNELS 3 Xrotation Yrotation Zrotation
				JOINT Neck
				{
					OFFSET 0.000000 39.131302 11.954600
					CHANNELS 3 Xrotation Yrotation Zrotation
					JOINT Head
					{
						OFFSET 0.000000 14.456192 15.627699
						CHANNELS 3 Xrotation Yrotation Zrotation
						JOINT HeadTop_End
						{
							OFFSET 0.000000 15.703506 7.603401
							CHANNELS 3 Xrotation Yrotation Zrotation
							End Site
							{
								OFFSET 0.000000 17.447403 0.000000
							}
						}
					}
				}
				JOINT LeftShoulder
				{
					OFFSET 17.399500 24.608795 1.168800
					CHANNELS 3 Xrotation Yrotation Zrotation
					JOINT LeftArm
					{
						OFFSET 18.980635 5.765305 1.818600
						CHANNELS 3 Xrotation Yrotation Zrotation
						JOINT LeftForeArm
						{
							OFFSET 49.290169 0.000000 0.000000
							CHANNELS 3 Xrotation Yrotation Zrotation
							JOINT LeftHand
							{
								OFFSET 31.562012 0.000000 0.000000
								CHANNELS 3 Xrotation Yrotation Zrotation
								JOINT LeftHandThumb1
								{
									OFFSET 6.133995 -4.388519 7.076070
									CHANNELS 3 Xrotation Yrotation Zrotation
									JOINT LeftHandThumb2
									{
										OFFSET 6.037666 -3.485840 3.485847
										CHANNELS 3 Xrotation Yrotation Zrotation
										JOINT LeftHandThumb3
										{
											OFFSET 6.496506 -3.750763 3.750761
											CHANNELS 3 Xrotation Yrotation Zrotation
											JOINT LeftHandThumb4
											{
												OFFSET 5.616882 -3.242905 3.242910
												CHANNELS 3 Xrotation Yrotation Zrotation
												End Site
												{
													OFFSET -1.254608 7.132141 0.375429
												}
											}
										}
									}
								}
								JOINT LeftHandPinky1
								{
									OFFSET 18.920792 -0.453171 -11.426712
									CHANNELS 3 Xrotation Yrotation Zrotation
									JOINT LeftHandPinky2
									{
										OFFSET 4.919586 0.000000 0.000000
										CHANNELS 3 Xrotation Yrotation Zrotation
										JOINT LeftHandPinky3
										{
											OFFSET 5.233047 0.000000 0.000000
											CHANNELS 3 Xrotation Yrotation Zrotation
											JOINT LeftHandPinky4
											{
												OFFSET 5.571716 0.000000 0.000000
												CHANNELS 3 Xrotation Yrotation Zrotation
												End Site
												{
													OFFSET -3.459808 4.342407 -0.466164
												}
											}
										}
									}
								}
								JOINT LeftHandRing1
								{
									OFFSET 22.726120 -0.094986 -6.500475
									CHANNELS 3 Xrotation Yrotation Zrotation
									JOINT LeftHandRing2
									{
										OFFSET 6.408615 0.000000 0.000000
										CHANNELS 3 Xrotation Yrotation Zrotation
										JOINT LeftHandRing3
										{
											OFFSET 6.150223 0.000000 0.000000
											CHANNELS 3 Xrotation Yrotation Zrotation
											JOINT LeftHandRing4
											{
												OFFSET 6.145386 0.000000 0.000000
												CHANNELS 3 Xrotation Yrotation Zrotation
												End Site
												{
													OFFSET -3.671402 4.923981 -0.202372
												}
											}
										}
									}
								}
								JOINT LeftHandMiddle1
								{
									OFFSET 23.373947 0.000000 0.000001
									CHANNELS 3 Xrotation Yrotation Zrotation
									JOINT LeftHandMiddle2
									{
										OFFSET 6.996567 0.000000 0.000000
										CHANNELS 3 Xrotation Yrotation Zrotation
										JOINT LeftHandMiddle3
										{
											OFFSET 7.015945 0.000000 0.000000
											CHANNELS 3 Xrotation Yrotation Zrotation
											JOINT LeftHandMiddle4
											{
												OFFSET 7.721573 0.000000 0.000000
												CHANNELS 3 Xrotation Yrotation Zrotation
												End Site
												{
													OFFSET -4.651108 6.158463 0.251582
												}
											}
										}
									}
								}
								JOINT LeftHandIndex1
								{
									OFFSET 21.310577 -0.490082 6.209344
									CHANNELS 3 Xrotation Yrotation Zrotation
									JOINT LeftHandIndex2
									{
										OFFSET 7.536453 0.000000 0.000000
										CHANNELS 3 Xrotation Yrotation Zrotation
										JOINT LeftHandIndex3
										{
											OFFSET 7.512344 0.000000 0.000000
											CHANNELS 3 Xrotation Yrotation Zrotation
											JOINT LeftHandIndex4
											{
												OFFSET 10.212402 0.000000 0.000001
												CHANNELS 3 Xrotation Yrotation Zrotation
												End Site
												{
													OFFSET -5.180801 8.690506 1.388433
												}
											}
										}
									}
								}
							}
						}
					}
				}
				JOINT RightShoulder
				{
					OFFSET -17.399500 24.608795 1.168800
					CHANNELS 3 Xrotation Yrotation Zrotation
					JOINT RightArm
					{
						OFFSET -18.980635 5.765305 1.818600
						CHANNELS 3 Xrotation Yrotation Zrotation
						JOINT RightForeArm
						{
							OFFSET -49.290169 0.000000 0.000000
							CHANNELS 3 Xrotation Yrotation Zrotation
							JOINT RightHand
							{
								OFFSET -31.562012 0.000000 0.000000
								CHANNELS 3 Xrotation Yrotation Zrotation
								JOINT RightHandThumb1
								{
									OFFSET -6.133995 -4.388519 7.076070
									CHANNELS 3 Xrotation Yrotation Zrotation
									JOINT RightHandThumb2
									{
										OFFSET -6.037666 -3.485840 3.485847
										CHANNELS 3 Xrotation Yrotation Zrotation
										JOINT RightHandThumb3
										{
											OFFSET -6.496506 -3.750763 3.750761
											CHANNELS 3 Xrotation Yrotation Zrotation
											JOINT RightHandThumb4
											{
												OFFSET -5.616882 -3.242905 3.242910
												CHANNELS 3 Xrotation Yrotation Zrotation
												End Site
												{
													OFFSET 1.254608 7.132141 0.375429
												}
											}
										}
									}
								}
								JOINT RightHandIndex1
								{
									OFFSET -21.310577 -0.490082 6.209344
									CHANNELS 3 Xrotation Yrotation Zrotation
									JOINT RightHandIndex2
									{
										OFFSET -7.536453 0.000000 0.000000
										CHANNELS 3 Xrotation Yrotation Zrotation
										JOINT RightHandIndex3
										{
											OFFSET -7.512344 0.000000 0.000000
											CHANNELS 3 Xrotation Yrotation Zrotation
											JOINT RightHandIndex4
											{
												OFFSET -10.212402 0.000000 0.000001
												CHANNELS 3 Xrotation Yrotation Zrotation
												End Site
												{
													OFFSET 5.180801 8.690506 1.388433
												}
											}
										}
									}
								}
								JOINT RightHandMiddle1
								{
									OFFSET -23.373947 0.000000 0.000001
									CHANNELS 3 Xrotation Yrotation Zrotation
									JOINT RightHandMiddle2
									{
										OFFSET -6.996567 0.000000 0.000000
										CHANNELS 3 Xrotation Yrotation Zrotation
										JOINT RightHandMiddle3
										{
											OFFSET -7.015945 0.000000 0.000000
											CHANNELS 3 Xrotation Yrotation Zrotation
											JOINT RightHandMiddle4
											{
												OFFSET -7.721573 0.000000 0.000000
												CHANNELS 3 Xrotation Yrotation Zrotation
												End Site
												{
													OFFSET 4.651108 6.158463 0.251582
												}
											}
										}
									}
								}
								JOINT RightHandRing1
								{
									OFFSET -22.726120 -0.094986 -6.500475
									CHANNELS 3 Xrotation Yrotation Zrotation
									JOINT RightHandRing2
									{
										OFFSET -6.408615 0.000000 0.000000
										CHANNELS 3 Xrotation Yrotation Zrotation
										JOINT RightHandRing3
										{
											OFFSET -6.150223 0.000000 0.000000
											CHANNELS 3 Xrotation Yrotation Zrotation
											JOINT RightHandRing4
											{
												OFFSET -6.145386 0.000000 0.000000
												CHANNELS 3 Xrotation Yrotation Zrotation
												End Site
												{
													OFFSET 3.671402 4.923981 -0.202372
												}
											}
										}
									}
								}
								JOINT RightHandPinky1
								{
									OFFSET -18.920792 -0.453171 -11.426712
									CHANNELS 3 Xrotation Yrotation Zrotation
									JOINT RightHandPinky2
									{
										OFFSET -4.919586 0.000000 0.000000
										CHANNELS 3 Xrotation Yrotation Zrotation
										JOINT RightHandPinky3
										{
											OFFSET -5.233047 0.000000 0.000000
											CHANNELS 3 Xrotation Yrotation Zrotation
											JOINT RightHandPinky4
											{
												OFFSET -5.571716 0.000000 0.000000
												CHANNELS 3 Xrotation Yrotation Zrotation
												End Site
												{
													OFFSET 3.459808 4.342407 -0.466164
												}
											}
										}
									}
								}
							}
						}
					}
				}
			}
		}
	}
	JOINT LeftUpLeg
	{
		OFFSET 19.899099 -7.885101 -3.429500
		CHANNELS 3 Xrotation Yrotation Zrotation
		JOINT LeftLeg
		{
			OFFSET 1.745560 -36.997807 10.304700
			CHANNELS 3 Xrotation Yrotation Zrotation
			JOINT LeftFoot
			{
				OFFSET -1.745558 -29.803308 -13.615400
				CHANNELS 3 Xrotation Yrotation Zrotation
				JOINT LeftToeBase
				{
					OFFSET 1.181900 -18.539904 15.226099
					CHANNELS 3 Xrotation Yrotation Zrotation
					JOINT LeftToe_End
					{
						OFFSET -0.863701 1.402801 16.534700
						CHANNELS 3 Xrotation Yrotation Zrotation
						End Site
						{
							OFFSET 0.000000 16.616566 0.000000
						}
					}
				}
			}
		}
	}
	JOINT RightUpLeg
	{
		OFFSET -19.899099 -7.885101 -3.429500
		CHANNELS 3 Xrotation Yrotation Zrotation
		JOINT RightLeg
		{
			OFFSET -1.745560 -36.997807 10.304700
			CHANNELS 3 Xrotation Yrotation Zrotation
			JOINT RightFoot
			{
				OFFSET 1.745558 -29.803308 -13.615400
				CHANNELS 3 Xrotation Yrotation Zrotation
				JOINT RightToeBase
				{
					OFFSET -1.181900 -18.539904 15.226099
					CHANNELS 3 Xrotation Yrotation Zrotation
					JOINT RightToe_End
					{
						OFFSET 0.863701 1.402801 16.534700
						CHANNELS 3 Xrotation Yrotation Zrotation
						End Site
						{
							OFFSET 0.000000 16.616566 0.000000
						}
					}
				}
			}
		}
	}
}
MOTION
Frames: 6
Frame Time: 0.033333
4.378655 57.885765 7.952735 10.150686 44.732104 -5.936421 43.266728 -0.517248 -1.165769 -4.295232 12.127446 -1.300011 -5.109345 12.238155 -0.801588 -14.610854 -19.594544 5.042928 -26.942687 -36.326201 -12.387226 0.000000 0.000001 0.000000 15.835138 -48.100825 54.618400 -67.923055 13.304663 -28.711451 0.000044 -72.944843 -5.176480 6.191540 7.767244 -17.843594 -9.319984 25.198398 -10.109158 41.201105 8.296329 28.448236 76.639415 -1.585373 -34.569838 -0.000000 -0.000001 0.000001 -12.158299 8.378077 -88.162572 -0.806353 2.593225 -69.150959 0.003619 0.013049 -31.732086 0.000002 -0.000000 -0.000000 -7.602035 3.814206 -83.728523 -0.601721 1.293690 -71.653650 0.004136 -0.946058 -28.592808 -0.000001 -0.000004 0.000003 7.305887 9.401873 -96.731352 0.014277 0.025822 -71.667911 0.002719 0.009261 -22.354886 0.000000 0.000001 0.000004 8.087408 -1.467209 -96.674743 2.069707 1.259691 -48.952789 1.043095 1.651754 -31.774703 -0.000001 0.000005 0.000002 11.753428 -0.719341 -39.482902 -99.367634 -17.509632 81.388247 0.000084 66.311185 0.230638 -31.956597 48.133231 -30.246513 9.347174 2.810567 -11.364521 16.169110 -43.265960 15.843595 32.491763 -44.566773 5.661127 -0.000002 -0.000003 0.000004 17.076801 -0.396525 31.924335 -0.204399 -0.284202 112.811557 1.553159 -1.173021 33.344550 -0.000000 -0.000003 0.000006 9.205471 -5.035910 102.738059 0.014976 -0.019182 61.018492 1.871345 0.346175 31.443773 0.000001 -0.000001 -0.000006 5.569151 -8.935235 107.329101 0.547971 -0.005788 41.263690 0.739142 0.837829 51.122217 -0.000002 -0.000001 -0.000003 6.511222 -17.148228 98.228024 0.007411 -0.015754 43.845744 0.011244 -0.024789 57.754550 0.000001 0.000001 -0.000001 -88.503078 -3.831019 -21.979873 62.088858 -21.612149 2.349983 16.580286 1.198820 -10.097892 -0.573456 -7.068415 1.005264 0.000000 -0.000000 0.000000 -10.442121 -25.966057 -5.105226 89.775071 12.357766 -10.025522 -71.048283 14.002955 -12.685006 -17.062499 1.595052 -0.281704 -0.000000 0.000000 -0.000000 
4.391788 57.926567 7.934721 10.073242 44.688172 -5.905932 43.277410 -0.480686 -1.160757 -4.307390 12.124649 -1.318729 -5.115691 12.233529 -0.819472 -14.446943 -19.589674 5.088305 -26.956081 -36.344533 -12.424394 -0.000001 -0.000000 0.000000 15.935818 -48.096300 54.782458 -67.925535 13.412048 -28.795606 0.000119 -72.923819 -5.199100 6.276519 7.769359 -17.827502 -9.319980 25.198400 -10.109159 41.201105 8.296323 28.448236 76.639415 -1.585373 -34.569835 -0.000001 0.000001 -0.000002 -12.158292 8.378081 -88.162572 -0.806354 2.593223 -69.150959 0.003619 0.013045 -31.732089 0.000001 -0.000000 0.000003 -7.602037 3.814207 -83.728530 -0.601722 1.293692 -71.653657 0.004136 -0.946062 -28.592813 -0.000001 -0.000001 0.000001 7.305887 9.401872 -96.731366 0.014279 0.025826 -71.667911 0.002719 0.009261 -22.354892 0.000000 -0.000002 0.000006 8.087406 -1.467205 -96.674743 2.069706 1.259694 -48.952789 1.043096 1.651756 -31.774706 -0.000001 0.000003 -0.000006 11.779586 -0.581888 -39.453953 -99.247239 -17.541020 81.375557 0.000117 66.336532 0.134004 -32.038519 48.109711 -30.087571 9.347178 2.810565 -11.364515 16.169115 -43.265960 15.843589 32.491749 -44.566776 5.661125 -0.000001 -0.000001 0.000005 17.076800 -0.396526 31.924338 -0.204397 -0.284196 112.811557 1.553152 -1.173023 33.344553 -0.000001 -0.000003 -0.000001 9.205473 -5.035908 102.738066 0.014978 -0.019184 61.018499 1.871347 0.346172 31.443776 0.000001 0.000000 -0.000001 5.569149 -8.935234 107.329108 0.547973 -0.005785 41.263679 0.739137 0.837827 51.122231 0.000001 0.000001 0.000000 6.511223 -17.148233 98.228024 0.007412 -0.015752 43.845747 0.011243 -0.024785 57.754550 0.000005 0.000001 0.000006 -88.411601 -3.868764 -21.977623 62.092806 -21.523427 2.394461 16.550131 1.181957 -10.091503 -0.573456 -7.068415 1.005264 0.000000 -0.000000 0.000000 -10.459266 -25.907157 -5.143534 89.721420 12.392314 -9.997656 -70.933714 13.999648 -12.657014 -17.062499 1.595049 -0.281705 0.000000 -0.000000 -0.000001 
4.404979 57.967476 7.916656 9.995954 44.644183 -5.875590 43.288025 -0.444028 -1.155689 -4.319554 12.121865 -1.337427 -5.122080 12.228889 -0.837323 -14.283147 -19.584705 5.133339 -26.969232 -36.362950 -12.461342 -0.000000 -0.000001 -0.000000 16.036625 -48.091748 54.946464 -67.929503 13.535957 -28.878016 0.000042 -72.917255 -5.222442 6.376683 7.767730 -17.824584 -9.319985 25.198403 -10.109156 41.201101 8.296328 28.448238 76.639415 -1.585374 -34.569831 -0.000000 -0.000000 -0.000001 -12.158293 8.378081 -88.162572 -0.806350 2.593219 -69.150959 0.003622 0.013052 -31.732086 0.000000 0.000001 -0.000000 -7.602039 3.814214 -83.728523 -0.601723 1.293687 -71.653657 0.004136 -0.946058 -28.592804 -0.000001 -0.000000 0.000007 7.305886 9.401875 -96.731352 0.014284 0.025825 -71.667911 0.002717 0.009262 -22.354890 0.000002 -0.000002 0.000013 8.087405 -1.467200 -96.674743 2.069704 1.259690 -48.952789 1.043096 1.651758 -31.774703 -0.000001 -0.000000 0.000001 11.805608 -0.444503 -39.425197 -99.125893 -17.581406 81.363153 0.000068 66.363962 0.064352 -32.104700 48.107669 -29.954549 9.347176 2.810563 -11.364523 16.169120 -43.265960 15.843587 32.491753 -44.566769 5.661130 -0.000001 -0.000002 0.000002 17.076800 -0.396532 31.924338 -0.204397 -0.284203 112.811557 1.553155 -1.173030 33.344553 -0.000002 -0.000003 -0.000002 9.205474 -5.035911 102.738066 0.014978 -0.019183 61.018499 1.871343 0.346178 31.443773 0.000001 0.000000 -0.000009 5.569148 -8.935238 107.329101 0.547972 -0.005785 41.263679 0.739138 0.837824 51.122221 -0.000001 -0.000001 -0.000003 6.511222 -17.148235 98.228024 0.007411 -0.015753 43.845747 0.011246 -0.024791 57.754550 0.000001 0.000004 0.000001 -88.319810 -3.906638 -21.975237 62.096426 -21.434682 2.438903 16.519852 1.165106 -10.085222 -0.573456 -7.068415 1.005264 -0.000000 -0.000000 -0.000000 -10.476387 -25.848257 -5.181966 89.667488 12.427191 -9.969671 -70.818967 13.996441 -12.629084 -17.062497 1.595049 -0.281704 -0.000000 0.000003 -0.000000 
4.416100 58.005547 7.899084 9.913954 44.602074 -5.839537 43.304694 -0.414150 -1.153604 -4.331711 12.116007 -1.356095 -5.129187 12.223877 -0.855523 -14.114011 -19.576048 5.189533 -26.990300 -36.378701 -12.504808 0.000001 0.000001 -0.000000 16.137235 -48.083531 55.134434 -67.909388 13.675464 -28.961590 -0.000014 -72.915282 -5.229485 6.464318 7.764279 -17.820469 -9.319986 25.198402 -10.109157 41.201098 8.296323 28.448233 76.639408 -1.585373 -34.569841 0.000001 0.000001 0.000001 -12.158292 8.378075 -88.162572 -0.806351 2.593225 -69.150959 0.003615 0.013046 -31.732082 0.000003 0.000001 0.000002 -7.602035 3.814208 -83.728530 -0.601727 1.293690 -71.653657 0.004140 -0.946057 -28.592804 0.000001 -0.000001 0.000002 7.305885 9.401874 -96.731359 0.014277 0.025825 -71.667918 0.002717 0.009258 -22.354892 0.000003 -0.000002 0.000004 8.087406 -1.467209 -96.674743 2.069706 1.259688 -48.952789 1.043094 1.651756 -31.774706 -0.000002 0.000003 0.000001 11.829146 -0.296559 -39.394311 -99.012178 -17.615029 81.336912 0.000129 66.382684 0.005720 -32.171014 48.113645 -29.834755 9.347174 2.810568 -11.364519 16.169119 -43.265960 15.843594 32.491760 -44.566769 5.661133 0.000002 -0.000003 0.000002 17.076798 -0.396527 31.924338 -0.204398 -0.284203 112.811557 1.553156 -1.173027 33.344550 -0.000001 -0.000001 -0.000002 9.205475 -5.035911 102.738073 0.014975 -0.019184 61.018499 1.871344 0.346176 31.443773 0.000001 0.000001 -0.000008 5.569148 -8.935236 107.329108 0.547971 -0.005788 41.263690 0.739140 0.837826 51.122224 0.000003 -0.000001 0.000002 6.511223 -17.148232 98.228031 0.007413 -0.015754 43.845747 0.011243 -0.024794 57.754556 0.000003 0.000003 0.000006 -88.228962 -3.944728 -21.970938 62.098359 -21.352677 2.476036 16.491514 1.149651 -10.080039 -0.573456 -7.068414 1.005264 0.000000 -0.000000 0.000000 -10.484001 -25.782820 -5.213640 89.616740 12.444533 -9.946316 -70.719191 13.986186 -12.588933 -17.062499 1.595047 -0.281705 0.000000 -0.000001 -0.000000 
4.421274 58.033600 7.883944 9.815562 44.571496 -5.782293 43.341392 -0.408170 -1.158774 -4.343481 12.103440 -1.374449 -5.137651 12.216248 -0.874084 -13.952832 -19.563841 5.282436 -27.023116 -36.377062 -12.575852 0.000001 0.000000 -0.000000 16.218182 -48.062945 55.371712 -67.816101 13.838071 -29.059938 0.000113 -72.914230 -5.189154 6.509897 7.755828 -17.806658 -9.319978 25.198400 -10.109157 41.201105 8.296329 28.448233 76.639415 -1.585376 -34.569838 -0.000001 0.000001 0.000000 -12.158291 8.378076 -88.162572 -0.806352 2.593223 -69.150959 0.003619 0.013045 -31.732086 -0.000000 0.000004 -0.000005 -7.602035 3.814210 -83.728530 -0.601723 1.293690 -71.653650 0.004136 -0.946061 -28.592808 -0.000003 -0.000000 -0.000002 7.305887 9.401872 -96.731359 0.014278 0.025826 -71.667918 0.002715 0.009261 -22.354895 0.000002 0.000000 0.000008 8.087411 -1.467207 -96.674743 2.069705 1.259694 -48.952792 1.043094 1.651754 -31.774709 0.000001 0.000003 0.000002 11.840767 -0.129949 -39.354737 -98.923515 -17.633207 81.281389 0.000141 66.372377 -0.024799 -32.239832 48.133596 -29.740238 9.347173 2.810565 -11.364516 16.169117 -43.265960 15.843585 32.491753 -44.566773 5.661134 0.000001 -0.000002 0.000002 17.076801 -0.396527 31.924335 -0.204396 -0.284201 112.811557 1.553155 -1.173023 33.344550 -0.000001 -0.000001 0.000001 9.205474 -5.035906 102.738066 0.014973 -0.019184 61.018499 1.871346 0.346175 31.443773 -0.000002 0.000001 -0.000006 5.569148 -8.935234 107.329101 0.547973 -0.005789 41.263683 0.739134 0.837829 51.122228 0.000000 0.000003 -0.000005 6.511219 -17.148233 98.228038 0.007414 -0.015757 43.845744 0.011245 -0.024789 57.754543 0.000001 0.000003 0.000006 -88.140886 -3.983403 -21.965888 62.093188 -21.298461 2.486664 16.470378 1.140727 -10.078968 -0.573456 -7.068414 1.005264 0.000000 -0.000000 0.000000 -10.455005 -25.707213 -5.227100 89.577446 12.415810 -9.938494 -70.670328 13.956895 -12.519362 -17.062499 1.595051 -0.281705 0.000000 -0.000002 -0.000000 
4.420679 58.051910 7.872540 9.700346 44.578599 -5.697046 43.403776 -0.441354 -1.158825 -4.350781 12.093985 -1.391629 -5.141029 12.205628 -0.890403 -13.918114 -19.559748 5.399492 -27.009862 -36.344782 -12.700357 0.000000 0.000000 -0.000000 16.196644 -48.010598 55.539069 -67.687912 13.947563 -29.207081 0.000121 -72.892585 -5.128256 6.534862 7.736321 -17.789388 -9.319978 25.198400 -10.109156 41.201105 8.296329 28.448236 76.639415 -1.585373 -34.569835 -0.000000 0.000000 0.000001 -12.158293 8.378080 -88.162572 -0.806347 2.593219 -69.150959 0.003621 0.013047 -31.732089 -0.000000 0.000000 -0.000006 -7.602033 3.814209 -83.728523 -0.601724 1.293690 -71.653657 0.004139 -0.946061 -28.592811 -0.000002 0.000002 0.000003 7.305888 9.401874 -96.731359 0.014275 0.025822 -71.667911 0.002718 0.009259 -22.354895 0.000001 -0.000002 0.000002 8.087409 -1.467203 -96.674743 2.069705 1.259690 -48.952789 1.043091 1.651756 -31.774706 -0.000001 0.000001 0.000001 11.841535 -0.022188 -39.286302 -98.904056 -17.679926 81.254840 -0.000011 66.329354 0.016006 -32.276199 48.165097 -29.661305 9.347174 2.810565 -11.364523 16.169115 -43.265953 15.843587 32.491756 -44.566773 5.661136 0.000000 -0.000001 0.000001 17.076800 -0.396526 31.924332 -0.204400 -0.284204 112.811557 1.553153 -1.173024 33.344557 0.000001 -0.000001 -0.000001 9.205474 -5.035907 102.738059 0.014979 -0.019181 61.018499 1.871343 0.346177 31.443773 0.000001 -0.000001 -0.000004 5.569147 -8.935234 107.329101 0.547974 -0.005787 41.263686 0.739142 0.837826 51.122231 -0.000001 -0.000000 -0.000003 6.511221 -17.148235 98.228024 0.007411 -0.015754 43.845747 0.011242 -0.024792 57.754550 0.000001 0.000003 0.000003 -88.040817 -3.992820 -21.966839 62.066216 -21.320582 2.483439 16.474608 1.161784 -10.089242 -0.573456 -7.068415 1.005264 -0.000000 -0.000000 0.000000 -10.369252 -25.649134 -5.224594 89.548957 12.374773 -9.937714 -70.674474 13.912321 -12.461762 -17.062501 1.595049 -0.281705 -0.000000 0.000001 -0.000000 
